<?xml version="1.0" encoding="UTF-8" standalone="no"?>
<svg width="241px" height="241px" viewBox="0 0 241 241" version="1.1" xmlns="http://www.w3.org/2000/svg" xmlns:xlink="http://www.w3.org/1999/xlink" xmlns:sketch="http://www.bohemiancoding.com/sketch/ns">
    <!-- Generator: Sketch 3.0.4 (8053) - http://www.bohemiancoding.com/sketch -->
    <title>codepen-logo</title>
    <desc>Created with Sketch.</desc>
    <defs></defs>
    <g id="Page-1" stroke="none" stroke-width="1" fill="none" fill-rule="evenodd" sketch:type="MSPage">
        <g id="codepen-logo" sketch:type="MSLayerGroup" fill="#000000">
            <path d="M120.096,0 C53.768,0 0,53.8 0,120.096 C0,186.392 53.768,240.096 120,240.19 C186.326,240.19 240.094,186.424 240.094,120.096 C240.094,53.768 186.422,0 120,0 L120.096,0 Z M120.096,220.466 C64.75,220.466 19.724,175.438 19.724,120.094 C19.724,64.75 64.75,19.8 120,19.8 C175.344,19.8 220.4,64.8 220.4,120.172 C220.4,175.544 175.44,220.4 120,220.466 L120.096,220.466 Z" id="Shape" sketch:type="MSShapeGroup"></path>
            <path d="M194.294,96.638 C194.28,96.544 194.256,96.454 194.242,96.36 C194.21,96.18 194.178,96 194.13,95.824 C194.102,95.718 194.064,95.616 194.03,95.516 C193.98,95.36 193.928,95.204 193.866,95.052 C193.824,94.946 193.772,94.842 193.724,94.74 C193.658,94.596 193.588,94.454 193.508,94.318 C193.45,94.216 193.386,94.118 193.326,94.022 C193.24,93.89 193.152,93.76 193.056,93.636 C192.986,93.542 192.912,93.448 192.838,93.358 C192.736,93.24 192.63,93.124 192.52,93.014 C192.436,92.928 192.354,92.842 192.266,92.764 C192.148,92.658 192.028,92.556 191.904,92.46 C191.808,92.386 191.714,92.312 191.614,92.242 C191.576,92.218 191.544,92.188 191.508,92.164 L123.634,47 C121.49,45.57 118.698,45.57 116.554,47 L48.68,92.162 C48.644,92.186 48.612,92.216 48.574,92.24 C48.474,92.31 48.38,92.384 48.286,92.44 C48.162,92.538 48.04,92.64 47.924,92.744 C47.834,92.822 47.752,92.908 47.668,92.994 C47.556,93.104 47.452,93.22 47.352,93.394 C47.276,93.484 47.202,93.578 47.132,93.672 C47.038,93.796 46.948,93.926 46.864,94.058 C46.8,94.156 46.74,94.254 46.68,94.258 C46.602,94.394 46.532,94.536 46.464,94.68 C46.416,94.782 46.364,94.888 46.322,94.992 C46.26,95.144 46.208,95.3 46.158,95.392 C46.124,95.494 46.088,95.596 46.058,95.7 C46.012,95.876 45.98,96.056 45.946,96.236 C45.93,96.33 45.906,96.42 45.896,96.436 C45.858,96.71 45.838,96.986 45.838,97.268 L45.838,142.72 L45.838,143.556 C45.85,143.556 45.838,143.756 45.838,143.756 C45.872,143.956 45.838,144.156 46.038,144.292 C46.068,144.492 46.038,144.492 46.238,144.6 C46.288,144.8 46.438,145 46.438,145 C46.48,145.2 46.438,145.2 46.638,145.308 C46.706,145.508 46.838,145.508 46.838,145.734 C46.896,145.734 47.038,145.934 47.038,145.934 C47.122,146.134 47.238,146.134 47.238,146.32 C47.308,146.32 47.438,146.52 47.438,146.598 C47.538,146.798 47.638,146.798 47.838,146.998 C47.922,146.998 48.038,147.198 48.038,147.248 C48.154,147.448 48.238,147.448 48.438,147.552 C48.532,147.552 48.638,147.752 48.638,147.752 C48.676,147.752 48.638,147.752 48.838,147.83 L116.554,193.28 C117.626,194.08 118.954,194.28 120.154,194.354 C121.386,194.354 122.62,193.994 123.694,193.28 L191.57,148.03 C191.606,148.006 191.638,147.976 191.676,147.952 C191.776,147.882 191.87,147.808 191.966,147.734 C192.09,147.636 192.21,147.534 192.328,147.43 C192.416,147.352 192.498,147.266 192.582,147.18 C192.694,147.07 192.798,146.954 192.9,146.836 C192.974,146.746 193.048,146.656 193.118,146.558 C193.214,146.434 193.302,146.304 193.388,146.172 C193.448,146.074 193.512,145.976 193.57,145.88 C193.65,145.74 193.72,145.598 193.786,145.454 C193.834,145.352 193.886,145.25 193.928,145.146 C193.99,144.99 194.042,144.834 194.092,144.678 C194.126,144.576 194.164,144.474 194.192,144.37 C194.238,144.194 194.272,144.014 194.304,143.834 C194.32,143.744 194.344,143.65 194.356,143.56 C194.392,143.282 194.412,143.006 194.412,142.724 L194.412,97.47 C194.352,97.2 194.4,97 194.2,96.638 L194.294,96.638 Z M126.476,64.146 L176.478,97.478 L154.144,112.42 L126.476,93.912 L126.476,64.146 L126.476,64.146 Z M113.712,64.2 L113.712,93.966 L86.046,112.42 L63.71,97.478 L113.712,64.146 L113.712,64.2 Z M58.602,109.416 L74.568,120.096 L58.602,130.776 L58.602,109.416 L58.602,109.416 Z M113.712,176.044 L63.71,142.8 L86.046,127.862 L113.712,146.366 L113.712,176.044 L113.712,176.044 Z M120.096,135.194 L97.524,120.096 L120.096,104.998 L142.666,120.096 L120.096,135.194 L120.096,135.194 Z M126.476,176.044 L126.476,146.28 L154.144,127.776 L176.478,142.714 L126.476,176.044 L126.476,176.044 Z M181.588,130.776 L165.624,120.096 L181.588,109.416 L181.588,130.776 L181.588,130.776 Z" id="Shape" sketch:type="MSShapeGroup"></path>
        </g>
    </g>
</svg>