<?xml version="1.0" encoding="UTF-8" standalone="no"?>
<svg width="500px" height="198px" viewBox="0 0 500 198" version="1.1" xmlns="http://www.w3.org/2000/svg" xmlns:xlink="http://www.w3.org/1999/xlink" xmlns:sketch="http://www.bohemiancoding.com/sketch/ns">
    <!-- Generator: Sketch 3.0.4 (8053) - http://www.bohemiancoding.com/sketch -->
    <title>DNN_fullcolor_pos</title>
    <desc>Created with Sketch.</desc>
    <defs></defs>
    <g id="Page-1" stroke="none" stroke-width="1" fill="none" fill-rule="evenodd" sketch:type="MSPage">
        <g id="DNN_fullcolor_pos" sketch:type="MSLayerGroup">
            <path d="M277.815972,66.4828421 L237.149306,66.4828421 L237.149306,146.426211 L277.815972,146.426211 C299.888889,146.426211 317.770833,128.540211 317.770833,106.454526 C317.770833,84.3792632 299.888889,66.4828421 277.815972,66.4828421 M277.809028,121.144737 L263.118056,121.144737 L263.118056,91.7608421 L277.809028,91.7608421 C285.930556,91.7608421 292.486111,98.3469474 292.486111,106.454526 C292.486111,114.558632 285.930556,121.144737 277.809028,121.144737" id="Fill-1" fill="#362627" sketch:type="MSShapeGroup"></path>
            <path d="M407.996528,106.068947 C407.777778,84.1847368 389.986111,66.4828421 368.041667,66.4828421 L328.076389,66.4828421 L328.076389,146.426211 L354.072917,146.426211 L354.072917,92.466 L368.041667,92.466 C375.774306,92.466 382.038194,98.7325263 382.038194,106.454526 L382.038194,146.426211 L408.010417,146.426211 L408.010417,106.068947 L407.996528,106.068947" id="Fill-2" fill="#362627" sketch:type="MSShapeGroup"></path>
            <path d="M499.986111,106.068947 C499.770833,84.1847368 481.975694,66.4828421 460.038194,66.4828421 L420.065972,66.4828421 L420.065972,146.426211 L446.059028,146.426211 L446.059028,92.466 L460.038194,92.466 C467.760417,92.466 474.024306,98.7325263 474.024306,106.454526 L474.024306,146.426211 L500,146.426211 L500,106.068947 L499.986111,106.068947" id="Fill-3" fill="#362627" sketch:type="MSShapeGroup"></path>
            <path d="M131.461806,66.4828421 L131.461806,6.336 C121.180556,2.69905263 110.114583,0.726 98.5902778,0.726 L0,0.726 L0,132.243158 L65.7256944,132.243158 L65.7256944,66.4828421 L131.461806,66.4828421" id="Fill-4" fill="#DD3B41" sketch:type="MSShapeGroup"></path>
            <path d="M131.461806,66.4828421 L65.7256944,66.4828421 L65.7256944,132.243158 L98.5902778,132.243158 C116.732639,132.243158 131.434028,117.539053 131.461806,99.3925263 L131.461806,66.4828421" id="Fill-5" fill="#FFFFFF" sketch:type="MSShapeGroup"></path>
            <path d="M0,198 L65.7256944,198 L65.7256944,132.243158 L0,132.243158 L0,198 Z M131.461806,6.336 L131.461806,66.4828421 L191.576389,66.4828421 C181.673611,38.4641053 159.46875,16.2429474 131.461806,6.336 L131.461806,6.336 Z" id="Fill-6" fill="#362627" sketch:type="MSShapeGroup"></path>
            <path d="M191.576389,66.4828421 L131.461806,66.4828421 L131.461806,99.3925263 C131.434028,117.539053 116.732639,132.243158 98.5902778,132.243158 L65.7256944,132.243158 L65.7256944,198 L98.5902778,198 C153.041667,198 197.1875,153.832105 197.1875,99.3577895 C197.1875,87.8251579 195.208333,76.7684211 191.576389,66.4828421" id="Fill-7" fill="#0099CE" sketch:type="MSShapeGroup"></path>
        </g>
    </g>
</svg>