<?xml version="1.0" encoding="UTF-8" standalone="no"?>
<svg width="240px" height="236px" viewBox="0 0 240 236" version="1.1" xmlns="http://www.w3.org/2000/svg" xmlns:xlink="http://www.w3.org/1999/xlink" xmlns:sketch="http://www.bohemiancoding.com/sketch/ns">
    <!-- Generator: Sketch 3.0.4 (8053) - http://www.bohemiancoding.com/sketch -->
    <title>Group</title>
    <desc>Created with Sketch.</desc>
    <defs></defs>
    <g id="Page-1" stroke="none" stroke-width="1" fill="none" fill-rule="evenodd" sketch:type="MSPage">
        <g id="Group" sketch:type="MSLayerGroup" fill="#161614">
            <path d="M120.216198,0.886228814 C54.0733884,0.886228814 0.438347107,54.7291102 0.438347107,121.150466 C0.438347107,174.286356 34.7583471,219.366525 82.3497521,235.268856 C88.3358678,236.382119 90.5335537,232.659958 90.5335537,229.483475 C90.5335537,226.615678 90.4224793,217.141992 90.3709091,207.092754 C57.048595,214.367797 50.0171901,192.903136 50.0171901,192.903136 C44.568595,179.002288 36.7180165,175.306017 36.7180165,175.306017 C25.8505785,167.84178 37.5371901,167.995127 37.5371901,167.995127 C49.5649587,168.843517 55.8981818,180.38839 55.8981818,180.38839 C66.581157,198.774153 83.9186777,193.458771 90.753719,190.385847 C91.8287603,182.612924 94.9328926,177.3075 98.3583471,174.30428 C71.7540496,171.26322 43.7871074,160.951102 43.7871074,114.869195 C43.7871074,101.739068 48.4661157,91.0107203 56.1282645,82.5885593 C54.8846281,79.5594492 50.7847934,67.3275 57.288595,50.7619915 C57.288595,50.7619915 67.3467769,47.5297458 90.2360331,63.0895339 C99.7904132,60.4248729 110.037025,59.0885593 120.216198,59.0427542 C130.395372,59.0885593 140.649917,60.4248729 150.222149,63.0895339 C173.083636,47.5297458 183.127934,50.7619915 183.127934,50.7619915 C189.647603,67.3275 185.545785,79.5594492 184.302149,82.5885593 C191.982149,91.0107203 196.629421,101.739068 196.629421,114.869195 C196.629421,161.060636 168.608926,171.231356 141.93719,174.208686 C146.233388,177.940805 150.061488,185.259661 150.061488,196.479915 C150.061488,212.571441 149.922645,225.522331 149.922645,229.483475 C149.922645,232.683856 152.078678,236.433898 158.150083,235.252924 C205.715702,219.332669 239.992066,174.268432 239.992066,121.150466 C239.992066,54.7291102 186.364959,0.886228814 120.216198,0.886228814" id="Fill-4" sketch:type="MSShapeGroup"></path>
            <path d="M45.8042975,173.559449 C45.5404959,174.156907 44.6042975,174.336144 43.751405,173.92589 C42.8826446,173.533559 42.3947107,172.719025 42.6763636,172.119576 C42.9342149,171.504195 43.8723967,171.332924 44.7391736,171.745169 C45.6099174,172.1375 46.1057851,172.96 45.8042975,173.559449" id="Fill-5" sketch:type="MSShapeGroup"></path>
            <path d="M50.6558678,178.992331 C50.0846281,179.524068 48.9679339,179.277119 48.2102479,178.436695 C47.4267769,177.598263 47.28,176.477034 47.8591736,175.937331 C48.4482645,175.405593 49.5312397,175.654534 50.3166942,176.492966 C51.1001653,177.341356 51.2528926,178.454619 50.6558678,178.992331" id="Fill-6" sketch:type="MSShapeGroup"></path>
            <path d="M55.3785124,185.918856 C54.6446281,186.430678 53.4446281,185.95072 52.7028099,184.881271 C51.9689256,183.811822 51.9689256,182.52928 52.7186777,182.015466 C53.4624793,181.501653 54.6446281,181.963686 55.3963636,183.025169 C56.1282645,184.112542 56.1282645,185.395085 55.3785124,185.918856" id="Fill-7" sketch:type="MSShapeGroup"></path>
            <path d="M61.848595,192.610381 C61.1920661,193.337288 59.793719,193.142119 58.7702479,192.150339 C57.7229752,191.180466 57.431405,189.804322 58.0899174,189.077415 C58.7543802,188.348517 60.1606612,188.553644 61.1920661,189.537458 C62.231405,190.505339 62.5487603,191.891441 61.848595,192.610381" id="Fill-8" sketch:type="MSShapeGroup"></path>
            <path d="M70.7742149,196.495847 C70.4846281,197.437839 69.1378512,197.866017 67.781157,197.46572 C66.4264463,197.053475 65.5398347,195.950169 65.8135537,194.99822 C66.0952066,194.050254 67.4479339,193.604153 68.8145455,194.032331 C70.1672727,194.442585 71.0558678,195.537924 70.7742149,196.495847" id="Fill-9" sketch:type="MSShapeGroup"></path>
            <path d="M80.5765289,197.21678 C80.6102479,198.208559 79.4598347,199.031059 78.0357025,199.048983 C76.6036364,199.080847 75.4452893,198.278263 75.4294215,197.302415 C75.4294215,196.300678 76.5540496,195.486144 77.9861157,195.462246 C79.4102479,195.434364 80.5765289,196.230975 80.5765289,197.21678" id="Fill-10" sketch:type="MSShapeGroup"></path>
            <path d="M89.6985124,195.657415 C89.8690909,196.625297 88.8793388,197.619068 87.465124,197.883941 C86.0747107,198.138856 84.787438,197.541398 84.6109091,196.581483 C84.4383471,195.589703 85.4459504,194.595932 86.8343802,194.339025 C88.2505785,194.092076 89.5180165,194.673602 89.6985124,195.657415" id="Fill-11" sketch:type="MSShapeGroup"></path>
        </g>
    </g>
</svg>