<?xml version="1.0" encoding="UTF-8" standalone="no"?>
<svg width="497px" height="108px" viewBox="0 0 497 108" version="1.1" xmlns="http://www.w3.org/2000/svg" xmlns:xlink="http://www.w3.org/1999/xlink" xmlns:sketch="http://www.bohemiancoding.com/sketch/ns">
    <!-- Generator: Sketch 3.0.4 (8053) - http://www.bohemiancoding.com/sketch -->
    <title>OOCSS</title>
    <desc>Created with Sketch.</desc>
    <defs></defs>
    <g id="Page-1" stroke="none" stroke-width="1" fill="none" fill-rule="evenodd" sketch:type="MSPage">
        <path d="M49.5983743,1.01991274 C19.5971068,1.01991274 0.328,21.6305396 0.328,53.8270218 C0.328,86.1454604 19.5971068,107 49.4764179,107 C79.1118163,107 98.7467922,85.6576349 98.7467922,53.4611527 C98.7467922,21.5085832 79.5996418,1.01991274 49.5983743,1.01991274 Z M49.5983743,85.9015476 C34.7196969,85.9015476 25.572969,73.5839541 25.572969,53.7050654 C25.572969,34.0700896 34.7196969,21.9964087 49.5983743,21.9964087 C64.3550953,21.9964087 73.3798668,33.9481332 73.3798668,53.7050654 C73.3798668,73.7059104 64.3550953,85.9015476 49.5983743,85.9015476 Z M157.163894,1.01991274 C127.162627,1.01991274 107.89352,21.6305396 107.89352,53.8270218 C107.89352,86.1454604 127.162627,107 157.041938,107 C186.677336,107 206.312312,85.6576349 206.312312,53.4611527 C206.312312,21.5085832 187.165162,1.01991274 157.163894,1.01991274 Z M157.163894,85.9015476 C142.285217,85.9015476 133.138489,73.5839541 133.138489,53.7050654 C133.138489,34.0700896 142.285217,21.9964087 157.163894,21.9964087 C171.920615,21.9964087 180.945387,33.9481332 180.945387,53.7050654 C180.945387,73.7059104 171.920615,85.9015476 157.163894,85.9015476 Z M308.755665,33.7042204 C307.170232,26.5087945 305.096974,21.9964087 301.19437,16.9961975 C293.267206,6.38599311 280.949612,1.01991274 265.21724,1.01991274 C250.948344,1.01991274 238.630751,5.53229851 230.215761,13.7033754 C220.581208,23.2159724 215.45904,37.2409552 215.45904,53.8270218 C215.45904,70.1691757 220.581208,84.4380712 229.605979,93.5847991 C238.264882,102.365658 250.826388,107 265.705065,107 C280.461786,107 292.291555,102.365658 299.85285,93.7067555 C304.975017,87.7308932 307.658057,81.755031 309.975228,71.3887394 L284.608303,67.6080918 C283.876565,72.7302595 283.02287,75.1693869 280.949612,78.0963398 C277.412877,82.9745947 271.680928,85.7795913 264.973327,85.7795913 C249.850737,85.7795913 240.825966,73.7059104 240.825966,53.8270218 C240.825966,33.7042204 249.484868,21.9964087 264.363545,21.9964087 C274.851793,21.9964087 281.315481,27.4844455 283.632652,38.5824753 L308.755665,33.7042204 Z M318.512175,74.0717796 C319.365869,79.6817727 319.975651,82.4867692 321.195215,85.4137222 C323.756299,92.3652354 328.268684,97.6093594 334.366503,101.024138 C340.952147,104.804785 351.196482,107 361.562774,107 C375.831669,107 386.56383,103.463265 393.6373,96.6337084 C399.247293,91.1456716 402.174246,83.3404638 402.174246,74.1937359 C402.174246,62.9737497 397.783816,54.8026728 389.002958,49.3146361 C384.368615,46.3876831 378.51471,44.3144248 369.246025,42.3631228 C354.855173,39.4361699 354.855173,39.4361699 352.416046,38.3385626 C348.513442,36.509217 346.684096,33.9481332 346.684096,30.5333548 C346.684096,24.9233617 352.172133,20.8988014 359.611472,20.8988014 C368.880156,20.8988014 373.270586,24.1916234 374.734062,32.1187876 L400.588813,29.313791 C399.00338,22.3622778 397.539904,18.7035867 394.490994,14.6790264 C387.90535,5.53229851 376.075582,0.776 360.587123,0.776 C336.561718,0.776 321.439127,12.6057681 321.439127,31.3870494 C321.439127,41.2655155 325.585644,49.4365924 333.268896,54.8026728 C337.781281,57.9735385 341.683885,59.4370149 352.903871,61.8761424 C365.587334,64.8030953 368.636243,65.6567899 371.197327,66.8763536 C374.368193,68.3398301 376.319495,71.6326521 376.319495,75.4132997 C376.319495,82.2428565 370.709502,86.3893731 361.318861,86.3893731 C355.099086,86.3893731 349.976918,84.3161148 347.049966,80.6574237 C345.22062,78.2182962 344.366925,76.0230815 343.8791,71.6326521 L318.512175,74.0717796 Z M411.686843,74.0717796 C412.540537,79.6817727 413.150319,82.4867692 414.369883,85.4137222 C416.930967,92.3652354 421.443352,97.6093594 427.541171,101.024138 C434.126815,104.804785 444.37115,107 454.737442,107 C469.006338,107 479.738498,103.463265 486.811968,96.6337084 C492.421961,91.1456716 495.348914,83.3404638 495.348914,74.1937359 C495.348914,62.9737497 490.958485,54.8026728 482.177626,49.3146361 C477.543284,46.3876831 471.689378,44.3144248 462.420693,42.3631228 C448.029842,39.4361699 448.029842,39.4361699 445.590714,38.3385626 C441.68811,36.509217 439.858765,33.9481332 439.858765,30.5333548 C439.858765,24.9233617 445.346801,20.8988014 452.78614,20.8988014 C462.054824,20.8988014 466.445254,24.1916234 467.90873,32.1187876 L493.763481,29.313791 C492.178048,22.3622778 490.714572,18.7035867 487.665662,14.6790264 C481.080018,5.53229851 469.25025,0.776 453.761791,0.776 C429.736386,0.776 414.613796,12.6057681 414.613796,31.3870494 C414.613796,41.2655155 418.760312,49.4365924 426.443564,54.8026728 C430.955949,57.9735385 434.858553,59.4370149 446.07854,61.8761424 C458.762002,64.8030953 461.810912,65.6567899 464.371995,66.8763536 C467.542861,68.3398301 469.494163,71.6326521 469.494163,75.4132997 C469.494163,82.2428565 463.88417,86.3893731 454.493529,86.3893731 C448.273754,86.3893731 443.151587,84.3161148 440.224634,80.6574237 C438.395288,78.2182962 437.541594,76.0230815 437.053768,71.6326521 L411.686843,74.0717796 Z" id="OOCSS" fill="#5A5A5A" sketch:type="MSShapeGroup"></path>
    </g>
</svg>