<?xml version="1.0" encoding="UTF-8" standalone="no"?>
<svg width="500px" height="198px" viewBox="0 0 500 198" version="1.1" xmlns="http://www.w3.org/2000/svg" xmlns:xlink="http://www.w3.org/1999/xlink" xmlns:sketch="http://www.bohemiancoding.com/sketch/ns">
    <!-- Generator: Sketch 3.0.4 (8053) - http://www.bohemiancoding.com/sketch -->
    <title>SMACSS</title>
    <desc>Created with Sketch.</desc>
    <defs></defs>
    <g id="Page-1" stroke="none" stroke-width="1" fill="none" fill-rule="evenodd" sketch:type="MSPage">
        <path d="M2,115.72101 C2.70028011,120.368542 3.20048019,122.692308 4.20088035,125.117107 C6.30172069,130.876005 10.0032013,135.220436 15.0052021,138.049369 C20.4073629,141.181401 28.8107243,143 37.3141257,143 C49.0188075,143 57.8223289,140.070034 63.6246499,134.41217 C68.2264906,129.865672 70.627451,123.399541 70.627451,115.822044 C70.627451,106.52698 67.0260104,99.7577497 59.8231293,95.2112514 C56.0216086,92.7864524 51.2196879,91.0688863 43.6166467,89.4523536 C31.8119248,87.0275545 31.8119248,87.0275545 29.8111244,86.1182549 C26.6098439,84.6027555 25.1092437,82.4810563 25.1092437,79.652124 C25.1092437,75.0045924 29.6110444,71.6704937 35.7134854,71.6704937 C43.3165266,71.6704937 46.9179672,74.3983927 48.1184474,80.9655568 L69.3269308,78.641791 C68.0264106,72.8828932 66.8259304,69.8518944 64.32493,66.5177956 C58.9227691,58.9402985 49.2188876,55 36.5138055,55 C16.8059224,55 4.40096038,64.8002296 4.40096038,80.3593571 C4.40096038,88.543054 7.80232093,95.3122847 14.1048419,99.7577497 C17.8063225,102.384615 21.007603,103.597015 30.2112845,105.617681 C40.6154462,108.04248 43.1164466,108.749713 45.2172869,109.760046 C47.8183273,110.972445 49.4189676,113.700344 49.4189676,116.832377 C49.4189676,122.490241 44.8171269,125.925373 37.1140456,125.925373 C32.0120048,125.925373 27.8103241,124.207807 25.4093637,121.176808 C23.9087635,119.156142 23.2084834,117.337543 22.8083233,113.700344 L2,115.72101 Z M134.753101,141.080367 C135.253301,137.847302 136.553822,133.401837 139.054822,126.228473 L148.758703,98.5453502 C150.059224,94.9081515 151.059624,91.2709529 153.260504,83.3903559 C153.160464,84.9058553 153.160464,84.9058553 152.860344,90.26062 C152.660264,93.3926521 152.360144,100.970149 152.360144,103.394948 L152.360144,125.420207 C152.360144,132.593571 152.160064,136.432836 151.559824,141.080367 L171.267707,141.080367 C170.667467,137.039036 170.467387,133.098737 170.467387,125.420207 L170.467387,72.7818599 C170.467387,66.0126292 170.667467,61.8702641 171.267707,57.0206659 L144.757103,57.0206659 C144.156863,61.2640643 143.356543,64.4971297 141.055622,71.2663605 L126.14966,114.811711 L111.143657,71.2663605 C108.842737,64.598163 108.042417,61.3650976 107.342137,57.0206659 L80.9315726,57.0206659 C81.4317727,61.3650976 81.7318928,66.7198622 81.7318928,72.7818599 L81.7318928,125.420207 C81.7318928,132.290471 81.5318127,136.533869 80.9315726,141.080367 L100.639456,141.080367 C100.039216,136.836969 99.8391357,132.391504 99.8391357,125.420207 L99.8391357,103.495982 C99.8391357,98.141217 99.4389756,89.8564868 98.8387355,83.4913892 C99.3389356,84.9058553 99.3389356,84.9058553 100.439376,88.543054 C100.739496,89.3513203 103.740696,98.7474168 103.840736,99.2525832 L113.044418,126.12744 C115.745498,133.80597 116.845938,137.544202 117.346138,141.080367 L134.753101,141.080367 Z M263.904762,141.080367 C262.604242,138.251435 261.003601,134.10907 259.102841,128.754305 L237.394158,67.9322618 C235.393357,62.5774971 234.693077,59.9506315 233.992797,57.0206659 L207.882353,57.0206659 C207.382153,59.9506315 206.481793,62.9816303 204.681072,67.9322618 L183.072429,128.754305 C180.671469,135.624569 179.771108,138.049369 178.270508,141.080367 L201.679872,141.080367 C202.180072,137.342135 202.880352,134.210103 204.180872,130.168772 L206.881953,121.580941 L235.393357,121.580941 L238.094438,130.168772 C239.094838,133.603904 239.695078,136.230769 240.495398,141.080367 L263.904762,141.080367 Z M230.491397,104.607348 L211.683874,104.607348 L220.987595,74.2973594 L230.491397,104.607348 Z M344.837135,82.2789897 C343.536615,76.3180253 341.835934,72.5797933 338.634654,68.4374282 C332.132053,59.6475316 322.028011,55.2020666 309.122849,55.2020666 C297.418167,55.2020666 287.314126,58.9402985 280.411365,65.7095293 C272.508203,73.5901263 268.306523,85.2089552 268.306523,98.9494834 C268.306523,112.487945 272.508203,124.30884 279.911164,131.886338 C287.014006,139.160735 297.318127,143 309.523009,143 C321.627851,143 331.331733,139.160735 337.534214,131.987371 C341.735894,127.036739 343.936775,122.086108 345.837535,113.498278 L325.029212,110.366246 C324.428972,114.609644 323.728691,116.63031 322.028011,119.055109 C319.126851,123.096441 314.42497,125.420207 308.922769,125.420207 C296.517807,125.420207 289.114846,115.41791 289.114846,98.9494834 C289.114846,82.2789897 296.217687,72.5797933 308.422569,72.5797933 C317.02601,72.5797933 322.328131,77.1262916 324.228892,86.3203215 L344.837135,82.2789897 Z M352.840336,115.72101 C353.540616,120.368542 354.040816,122.692308 355.041216,125.117107 C357.142057,130.876005 360.843537,135.220436 365.845538,138.049369 C371.247699,141.181401 379.65106,143 388.154462,143 C399.859144,143 408.662665,140.070034 414.464986,134.41217 C419.066827,129.865672 421.467787,123.399541 421.467787,115.822044 C421.467787,106.52698 417.866347,99.7577497 410.663465,95.2112514 C406.861945,92.7864524 402.060024,91.0688863 394.456983,89.4523536 C382.652261,87.0275545 382.652261,87.0275545 380.651461,86.1182549 C377.45018,84.6027555 375.94958,82.4810563 375.94958,79.652124 C375.94958,75.0045924 380.451381,71.6704937 386.553822,71.6704937 C394.156863,71.6704937 397.758303,74.3983927 398.958784,80.9655568 L420.167267,78.641791 C418.866747,72.8828932 417.666267,69.8518944 415.165266,66.5177956 C409.763105,58.9402985 400.059224,55 387.354142,55 C367.646259,55 355.241297,64.8002296 355.241297,80.3593571 C355.241297,88.543054 358.642657,95.3122847 364.945178,99.7577497 C368.646659,102.384615 371.847939,103.597015 381.051621,105.617681 C391.455782,108.04248 393.956783,108.749713 396.057623,109.760046 C398.658663,110.972445 400.259304,113.700344 400.259304,116.832377 C400.259304,122.490241 395.657463,125.925373 387.954382,125.925373 C382.852341,125.925373 378.65066,124.207807 376.2497,121.176808 C374.7491,119.156142 374.04882,117.337543 373.648659,113.700344 L352.840336,115.72101 Z M429.270908,115.72101 C429.971188,120.368542 430.471389,122.692308 431.471789,125.117107 C433.572629,130.876005 437.27411,135.220436 442.27611,138.049369 C447.678271,141.181401 456.081633,143 464.585034,143 C476.289716,143 485.093237,140.070034 490.895558,134.41217 C495.497399,129.865672 497.898359,123.399541 497.898359,115.822044 C497.898359,106.52698 494.296919,99.7577497 487.094038,95.2112514 C483.292517,92.7864524 478.490596,91.0688863 470.887555,89.4523536 C459.082833,87.0275545 459.082833,87.0275545 457.082033,86.1182549 C453.880752,84.6027555 452.380152,82.4810563 452.380152,79.652124 C452.380152,75.0045924 456.881953,71.6704937 462.984394,71.6704937 C470.587435,71.6704937 474.188876,74.3983927 475.389356,80.9655568 L496.597839,78.641791 C495.297319,72.8828932 494.096839,69.8518944 491.595838,66.5177956 C486.193677,58.9402985 476.489796,55 463.784714,55 C444.076831,55 431.671869,64.8002296 431.671869,80.3593571 C431.671869,88.543054 435.073229,95.3122847 441.37575,99.7577497 C445.077231,102.384615 448.278511,103.597015 457.482193,105.617681 C467.886355,108.04248 470.387355,108.749713 472.488195,109.760046 C475.089236,110.972445 476.689876,113.700344 476.689876,116.832377 C476.689876,122.490241 472.088035,125.925373 464.384954,125.925373 C459.282913,125.925373 455.081232,124.207807 452.680272,121.176808 C451.179672,119.156142 450.479392,117.337543 450.079232,113.700344 L429.270908,115.72101 Z" id="SMACSS" fill="#5A5A5A" sketch:type="MSShapeGroup"></path>
    </g>
</svg>