<?xml version="1.0" encoding="UTF-8" standalone="no"?>
<svg width="240px" height="240px" viewBox="0 0 240 240" version="1.1" xmlns="http://www.w3.org/2000/svg" xmlns:xlink="http://www.w3.org/1999/xlink" xmlns:sketch="http://www.bohemiancoding.com/sketch/ns">
    <!-- Generator: Sketch 3.0.4 (8053) - http://www.bohemiancoding.com/sketch -->
    <title>Twitter_logo_blue</title>
    <desc>Created with Sketch.</desc>
    <defs>
        <path id="path-1" d="M0.0525547445,-0.15644843 L239.465693,-0.15644843 L239.465693,195.068341 L0.0525547445,195.068341"></path>
    </defs>
    <g id="Page-1" stroke="none" stroke-width="1" fill="none" fill-rule="evenodd" sketch:type="MSPage">
        <g id="Twitter_logo_blue" sketch:type="MSLayerGroup" transform="translate(0.000000, 21.000000)">
            <mask id="mask-2" sketch:name="Clip 2" fill="white">
                <use xlink:href="#path-1"></use>
            </mask>
            <g id="Clip-2"></g>
            <path d="M75.3109489,195.121076 C47.5664234,195.121076 21.7418978,186.960269 0,172.973076 C3.84350365,173.428359 7.75445255,173.661274 11.719708,173.661274 C34.7369343,173.661274 55.9208759,165.779964 72.7348905,152.558314 C51.2364964,152.160161 33.0928467,137.907534 26.8414599,118.321596 C29.8405839,118.897291 32.9185401,119.205794 36.0840876,119.205794 C40.5652555,119.205794 44.9054015,118.603731 49.0283212,117.476951 C26.5524088,112.948735 9.61839416,93.0235336 9.61839416,69.1379013 C9.61839416,68.9304753 9.61839416,68.7239283 9.62189781,68.5182601 C16.2464234,72.2106188 23.8213139,74.4281435 31.8753285,74.6839103 C18.6928467,65.8436951 10.0186861,50.7543318 10.0186861,33.6513543 C10.0186861,24.6168969 12.4414599,16.1484664 16.670365,8.86746188 C40.9016058,38.692861 77.1021898,58.3192287 117.933723,60.3750314 C117.09635,56.7670493 116.661022,53.0043767 116.661022,49.1406278 C116.661022,21.9159641 138.658686,-0.15644843 165.791825,-0.15644843 C179.922044,-0.15644843 192.690219,5.83078027 201.652555,15.4119283 C212.843212,13.2005561 223.357664,9.09773991 232.849927,3.44889686 C229.181606,14.9601614 221.392117,24.6212915 211.248175,30.7227803 C221.186277,29.5309596 230.654891,26.8810045 239.465693,22.9601256 C232.878832,32.8462601 224.548905,41.529148 214.950657,48.4796771 C215.045255,50.5934888 215.092555,52.7196054 215.092555,54.857148 C215.092555,120.002099 165.67708,195.121076 75.3109489,195.121076" id="Fill-1" fill="#5E9FCB" sketch:type="MSShapeGroup" mask="url(#mask-2)"></path>
        </g>
    </g>
</svg>